Coordinates
version=1
nRows=11
nColumns=40
inDegrees=yes

Units are S.I. units (second, meters, Newtons, ...)
Angles are in degrees.

endheader
time	pelvis_tilt	pelvis_list	pelvis_rotation	pelvis_tx	pelvis_ty	pelvis_tz	hip_flexion_r	hip_adduction_r	hip_rotation_r	knee_angle_r	knee_angle_r_beta	ankle_angle_r	subtalar_angle_r	mtp_angle_r	hip_flexion_l	hip_adduction_l	hip_rotation_l	knee_angle_l	knee_angle_l_beta	ankle_angle_l	subtalar_angle_l	mtp_angle_l	lumbar_extension	lumbar_bending	lumbar_rotation	arm_flex_r	arm_add_r	arm_rot_r	elbow_flex_r	pro_sup_r	wrist_flex_r	wrist_dev_r	arm_flex_l	arm_add_l	arm_rot_l	elbow_flex_l	pro_sup_l	wrist_flex_l	wrist_dev_l
      0.23000000	    -14.59701336	     -3.24351730	     -9.65844990	      1.00038166	      0.98504817	     -0.34455640	     41.17813655	     10.32263947	     -4.58400433	     37.48749178	      0.65428016	      0.56084674	      0.00000000	      0.00000000	     13.22793247	     -3.71646599	     -1.47862931	     92.39620479	      1.61261799	    -12.98395558	      0.00000000	      0.00000000	      2.90848693	      9.08206482	      1.81625473	    -37.10988966	    -24.17077257	    -10.37022678	    107.96148282	     49.60138480	      0.00000000	      0.00000000	    -29.68121758	    -15.16627288	      1.18951133	    115.78798804	     50.40329634	      0.00000000	      0.00000000
      0.24000000	    -13.85778484	     -3.19713702	     -9.99284108	      0.99634420	      0.97901197	     -0.34494355	     40.55272875	     10.55193770	     -3.20129646	     42.35249492	      0.73919048	      4.70292005	      0.00000000	      0.00000000	     15.96894987	     -4.25772965	     -1.52140573	     96.73272820	      1.68830460	    -10.71546737	      0.00000000	      0.00000000	      1.23748675	      9.19933204	      3.34668354	    -34.32363842	    -24.69505665	     -9.29634396	    106.70907824	     50.73113731	      0.00000000	      0.00000000	    -28.99726189	    -14.91501749	      1.52381167	    111.96157530	     51.54875745	      0.00000000	      0.00000000
      0.25000000	    -13.24518318	     -3.53092245	     -9.85145641	      0.99234715	      0.97387693	     -0.34534125	     39.31506158	     11.01410188	     -1.96736957	     45.88914221	      0.80091662	      7.44952851	      0.00000000	      0.00000000	     19.09671780	     -5.11522254	     -0.76352359	    100.58314588	      1.75550707	     -9.70167997	      0.00000000	      0.00000000	     -0.32458110	      9.61500086	      4.52058899	    -31.30689902	    -24.95837811	     -8.70527195	    104.80702092	     51.05278218	      0.00000000	      0.00000000	    -28.22730539	    -14.63978750	      2.22512290	    108.08901606	     51.91485346	      0.00000000	      0.00000000
      0.26000000	    -13.05635329	     -3.31093381	     -9.35141983	      0.98929287	      0.96946353	     -0.34600167	     37.79222901	     10.73781353	     -0.93329508	     48.28759631	      0.84277754	     11.30825627	      0.00000000	      0.00000000	     22.85754560	     -5.33114372	      0.05291984	    103.60786579	      1.80829839	     -7.78660416	      0.00000000	      0.00000000	     -0.90024019	      9.43577747	      5.25518621	    -28.27708859	    -25.27057676	     -7.46128006	    102.47628294	     51.57821916	      0.00000000	      0.00000000	    -27.74246321	    -14.54142196	      3.26908379	    103.89164208	     52.51842294	      0.00000000	      0.00000000
      0.27000000	    -12.68441486	     -3.15020546	     -9.00791812	      0.98664998	      0.96671395	     -0.34612737	     35.36077327	     10.42160333	     -0.41659876	     49.25685109	      0.85969423	     12.51729659	      0.00000000	      0.00000000	     26.50322173	     -5.58395324	      0.68389745	    105.74889168	      1.84566634	     -7.24227908	      0.00000000	      0.00000000	     -2.01407412	      9.13720466	      6.53676229	    -25.95768371	    -25.13819968	     -7.17044304	    101.70014290	     51.67287746	      0.00000000	      0.00000000	    -27.83391704	    -14.40873883	      3.83399530	    102.05233561	     52.59042177	      0.00000000	      0.00000000
      0.28000000	    -12.80532091	     -3.17903899	     -8.01982493	      0.98434165	      0.96531971	     -0.34687105	     33.13038548	     10.28424297	      0.64782893	     49.89410429	      0.87081640	     16.21158595	      0.00000000	      0.00000000	     30.64419759	     -5.55381196	      2.11347361	    106.88294441	      1.86545929	     -5.36150749	      0.00000000	      0.00000000	     -1.93106875	      9.12691753	      6.68330717	    -22.77795735	    -25.26196087	     -6.03712627	     99.47202970	     52.11008215	      0.00000000	      0.00000000	    -27.73597552	    -14.63214913	      5.11731198	     98.27335986	     52.85205438	      0.00000000	      0.00000000
      0.29000000	    -12.81841931	     -2.86845749	     -7.75368736	      0.98263371	      0.96537739	     -0.34715861	     30.57002807	      9.56834481	      0.42793382	     49.75704373	      0.86842424	     16.69363469	      0.00000000	      0.00000000	     34.45483208	     -5.46743704	      2.38720414	    107.23389955	      1.87158462	     -4.85947701	      0.00000000	      0.00000000	     -2.19275604	      8.62761594	      8.17648888	    -21.06076221	    -25.36662785	     -5.74175087	     99.45681012	     52.23103681	      0.00000000	      0.00000000	    -28.32006095	    -14.85731536	      5.27226099	     97.61751381	     52.87711493	      0.00000000	      0.00000000
      0.30000000	    -13.24244974	     -2.42793000	     -6.92342678	      0.98160468	      0.96691453	     -0.34802756	     27.73437455	      8.70102758	      0.58441443	     48.10765443	      0.83963697	     18.18051698	      0.00000000	      0.00000000	     38.61774755	     -4.89465826	      2.85255332	    106.64999724	      1.86139360	     -3.99692827	      0.00000000	      0.00000000	     -1.46023182	      8.07492688	      8.71149526	    -19.46381013	    -25.20681487	     -5.24655263	    100.05642593	     52.60857270	      0.00000000	      0.00000000	    -29.28289121	    -15.34209990	      5.39907534	     97.51913100	     53.02332220	      0.00000000	      0.00000000
      0.31000000	    -13.70877914	     -1.91857498	     -6.16705879	      0.98162050	      0.96987240	     -0.34859894	     24.66855396	      7.76666042	      0.41911776	     46.02140183	      0.80322499	     18.60823490	      0.00000000	      0.00000000	     42.39678081	     -4.09829320	      3.17395033	    105.08548837	      1.83408777	     -3.51260558	      0.00000000	      0.00000000	     -0.60958250	      7.18656970	      9.40257213	    -18.67354479	    -25.07902392	     -5.02188465	    101.64702994	     53.04011106	      0.00000000	      0.00000000	    -30.90139029	    -15.89103286	      4.91372474	     98.74198344	     53.20386005	      0.00000000	      0.00000000
      0.32000000	    -14.09218121	     -1.51189058	     -5.85394112	      0.98144486	      0.97408573	     -0.34912725	     21.81747481	      6.89300446	      0.23994800	     44.55715109	      0.77766899	     18.14164843	      0.00000000	      0.00000000	     45.60572422	     -3.48300611	      3.21785620	    102.70975834	      1.79262346	     -3.11751584	      0.00000000	      0.00000000	     -0.02205774	      6.77900637	     10.49903478	    -17.74608169	    -24.95780160	     -5.06627115	    103.44720199	     53.25734565	      0.00000000	      0.00000000	    -32.39918042	    -16.74130075	      4.30551226	    100.05105087	     53.29174660	      0.00000000	      0.00000000
      0.33000000	    -14.41672462	     -0.58893659	     -4.89980467	      0.98331880	      0.97936912	     -0.34993708	     17.99004820	      5.49014419	      0.38300659	     41.14577301	      0.71812921	     16.51813489	      0.00000000	      0.00000000	     48.38271998	     -2.13818326	      2.76915875	     99.73089934	      1.74063256	     -2.72271999	      0.00000000	      0.00000000	      0.72385860	      5.50108120	     10.89465358	    -17.78193555	    -24.22707109	     -5.16151085	    106.66231114	     53.79665101	      0.00000000	      0.00000000	    -34.75626722	    -17.40987175	      3.11935706	    103.11309770	     53.50973871	      0.00000000	      0.00000000
